<svg width="32" height="32" viewBox="0 0 32 32" fill="none" xmlns="http://www.w3.org/2000/svg">
<path fill-rule="evenodd" clip-rule="evenodd" d="M16.0002 21.3327C15.6962 21.3327 15.3935 21.23 15.1469 21.0233L7.14687 14.3567C6.58154 13.886 6.5042 13.0447 6.9762 12.4793C7.44687 11.914 8.28687 11.838 8.85354 12.3087L16.0149 18.2767L23.1642 12.5233C23.7375 12.062 24.5775 12.1527 25.0389 12.726C25.5002 13.2993 25.4095 14.138 24.8362 14.6007L16.8362 21.038C16.5922 21.234 16.2962 21.3327 16.0002 21.3327Z" fill="#231F20"/>
<mask id="mask0_127_3756" style="mask-type:alpha" maskUnits="userSpaceOnUse" x="6" y="12" width="20" height="10">
<path fill-rule="evenodd" clip-rule="evenodd" d="M16.0002 21.3327C15.6962 21.3327 15.3935 21.23 15.1469 21.0233L7.14687 14.3567C6.58154 13.886 6.5042 13.0447 6.9762 12.4793C7.44687 11.914 8.28687 11.838 8.85354 12.3087L16.0149 18.2767L23.1642 12.5233C23.7375 12.062 24.5775 12.1527 25.0389 12.726C25.5002 13.2993 25.4095 14.138 24.8362 14.6007L16.8362 21.038C16.5922 21.234 16.2962 21.3327 16.0002 21.3327Z" fill="white"/>
</mask>
<g mask="url(#mask0_127_3756)">
<rect width="32" height="32" fill="#0D1C2E"/>
</g>
</svg>
