<svg width="20" height="20" viewBox="0 0 20 20" fill="none" xmlns="http://www.w3.org/2000/svg">
<path d="M14.1665 11.1663V13.6663C14.1665 16.9997 12.8332 18.333 9.49984 18.333H6.33317C2.99984 18.333 1.6665 16.9997 1.6665 13.6663V10.4997C1.6665 7.16634 2.99984 5.83301 6.33317 5.83301H8.83317" stroke="#909096" stroke-width="1.5" stroke-linecap="round" stroke-linejoin="round"/>
<path d="M14.1668 11.1663H11.5002C9.50016 11.1663 8.8335 10.4997 8.8335 8.49967V5.83301L14.1668 11.1663Z" stroke="#909096" stroke-width="1.5" stroke-linecap="round" stroke-linejoin="round"/>
<path d="M9.6665 1.66699H12.9998" stroke="#909096" stroke-width="1.5" stroke-linecap="round" stroke-linejoin="round"/>
<path d="M5.8335 4.16699C5.8335 2.78366 6.95016 1.66699 8.3335 1.66699H10.5168" stroke="#909096" stroke-width="1.5" stroke-linecap="round" stroke-linejoin="round"/>
<path d="M18.3334 6.66699V11.8253C18.3334 13.117 17.2834 14.167 15.9917 14.167" stroke="#909096" stroke-width="1.5" stroke-linecap="round" stroke-linejoin="round"/>
<path d="M18.3335 6.66699H15.8335C13.9585 6.66699 13.3335 6.04199 13.3335 4.16699V1.66699L18.3335 6.66699Z" stroke="#909096" stroke-width="1.5" stroke-linecap="round" stroke-linejoin="round"/>
</svg>
