<svg width="21" height="22" viewBox="0 0 21 22" fill="none" xmlns="http://www.w3.org/2000/svg">
<path d="M3 0C1.34315 0 0 1.34315 0 3V15C0 16.6569 1.34315 18 3 18H4V16H3C2.44772 16 2 15.5523 2 15V3C2 2.44772 2.44772 2 3 2H12C12.5523 2 13 2.44772 13 3H15C15 1.34315 13.6569 0 12 0H3ZM9 5C7.34315 5 6 6.34315 6 8V19C6 20.6569 7.34315 22 9 22H16.1716C16.9672 22 17.7303 21.6839 18.2929 21.1213L20.1213 19.2929C20.6839 18.7303 21 17.9672 21 17.1716V8C21 6.34315 19.6569 5 18 5H9ZM8 8C8 7.44772 8.44772 7 9 7H18C18.5523 7 19 7.44772 19 8V17.1716C19 17.4368 18.8946 17.6911 18.7071 17.8787L16.8787 19.7071C16.6911 19.8946 16.4368 20 16.1716 20H9C8.44772 20 8 19.5523 8 19V8ZM11 10C10.4477 10 10 10.4477 10 11C10 11.5523 10.4477 12 11 12H15.5C16.0523 12 16.5 11.5523 16.5 11C16.5 10.4477 16.0523 10 15.5 10H11ZM11 14C10.4477 14 10 14.4477 10 15C10 15.5523 10.4477 16 11 16H14C14.5523 16 15 15.5523 15 15C15 14.4477 14.5523 14 14 14H11Z" fill="black"/>
</svg>
