<svg width="4" height="14" viewBox="0 0 4 14" fill="none" xmlns="http://www.w3.org/2000/svg">
<path d="M2.3705 3.5C3.23345 3.5 3.9324 2.71688 3.9324 1.75C3.9324 0.783125 3.23345 0 2.3705 0C1.50755 0 0.808594 0.783125 0.808594 1.75C0.808594 2.71688 1.50755 3.5 2.3705 3.5ZM2.3705 5.25C1.50755 5.25 0.808594 6.03312 0.808594 7C0.808594 7.96688 1.50755 8.75 2.3705 8.75C3.23345 8.75 3.9324 7.96688 3.9324 7C3.9324 6.03312 3.23345 5.25 2.3705 5.25ZM2.3705 10.5C1.50755 10.5 0.808594 11.2831 0.808594 12.25C0.808594 13.2169 1.50755 14 2.3705 14C3.23345 14 3.9324 13.2169 3.9324 12.25C3.9324 11.2831 3.23345 10.5 2.3705 10.5Z" fill="#6B6B6B"/>
</svg>
