<svg width="9" height="16" viewBox="0 0 9 16" fill="none" xmlns="http://www.w3.org/2000/svg">
<path d="M1.34635 8.89899C1.29753 8.89806 1.29753 8.89806 1.24888 8.89355C0.710554 8.83371 0.317803 8.30034 0.371634 7.70211L0.890389 1.37377C0.940462 0.817314 1.36185 0.393555 1.8651 0.393555H5.65851C5.76689 0.393555 5.8745 0.41353 5.97693 0.452681C6.48854 0.648104 6.76071 1.26741 6.58485 1.83595L5.3192 5.32553L7.65381 5.32555C7.82653 5.32555 7.99619 5.37631 8.14562 5.47267C8.61346 5.77449 8.77258 6.44062 8.501 6.96057C8.14868 7.65332 4.608 13.6037 3.46381 15.5239C3.37278 15.6767 3.13963 15.6018 3.15 15.4242L3.53309 8.89355L1.34635 8.89899Z" fill="#E2B380"/>
</svg>
