<svg width="94" height="94" viewBox="0 0 94 94" fill="none" xmlns="http://www.w3.org/2000/svg">
<g clip-path="url(#clip0_986_636)">
<path d="M59.4474 2.79535L91.6042 35.443L79.409 79.6154L35.0569 91.1403L2.90002 58.4926L15.0953 14.3202L59.4474 2.79535Z" fill="url(#paint0_linear_986_636)"/>
<path d="M47.0002 47.556C49.9766 47.556 52.3979 45.1355 52.3979 42.1599C52.3979 39.1834 49.9766 36.7622 47.0002 36.7622C44.0238 36.7622 41.6025 39.1834 41.6025 42.1599C41.6025 45.1355 44.0238 47.556 47.0002 47.556ZM47.0002 38.3044C49.1261 38.3044 50.8557 40.034 50.8557 42.1599C50.8557 44.285 49.1261 46.0138 47.0002 46.0138C44.8743 46.0138 43.1447 44.285 43.1447 42.1599C43.1447 40.034 44.8743 38.3044 47.0002 38.3044Z" fill="white"/>
<path d="M33.8913 42.9818C36.8677 42.9818 39.289 40.5613 39.289 37.5856C39.289 34.6092 36.8677 32.188 33.8913 32.188C30.9149 32.188 28.4937 34.6092 28.4937 37.5856C28.4937 40.5613 30.9149 42.9818 33.8913 42.9818ZM33.8913 33.7302C36.0172 33.7302 37.7468 35.4597 37.7468 37.5856C37.7468 39.7108 36.0172 41.4396 33.8913 41.4396C31.7654 41.4396 30.0358 39.7108 30.0358 37.5856C30.0358 35.4597 31.7654 33.7302 33.8913 33.7302Z" fill="white"/>
<path d="M60.1086 42.9818C63.085 42.9818 65.5062 40.5613 65.5062 37.5856C65.5062 34.6092 63.085 32.188 60.1086 32.188C57.1322 32.188 54.7109 34.6092 54.7109 37.5856C54.7109 40.5613 57.1322 42.9818 60.1086 42.9818ZM60.1086 33.7302C62.2345 33.7302 63.9641 35.4597 63.9641 37.5856C63.9641 39.7108 62.2345 41.4396 60.1086 41.4396C57.9827 41.4396 56.2531 39.7108 56.2531 37.5856C56.2531 35.4597 57.9827 33.7302 60.1086 33.7302Z" fill="white"/>
<path d="M71.0975 55.5883C71.0751 55.4534 71.052 55.2837 71.025 55.0863C70.6711 52.4962 69.5946 44.6133 60.1086 44.6133C55.6949 44.6133 52.548 46.3205 50.7506 49.6848C49.6742 49.3702 48.435 49.1867 47 49.1867C45.565 49.1867 44.3243 49.3694 43.2479 49.6848C41.4512 46.3213 38.3059 44.6125 33.8914 44.6125C24.4054 44.6125 23.329 52.4954 22.975 55.0848C22.9481 55.2837 22.9249 55.4534 22.9026 55.5875C22.8447 55.9268 23.0198 56.2638 23.3305 56.4118C26.3517 57.8561 30.0043 58.6195 33.8922 58.6195C34.6926 58.6195 35.4806 58.5755 36.2579 58.5123C36.1808 58.9549 36.1268 59.3459 36.0844 59.6574C36.0574 59.8563 36.0343 60.0259 36.0119 60.1601C35.9541 60.4994 36.1291 60.8364 36.4399 60.9844C39.461 62.4287 43.1137 63.1921 47.0016 63.1921C50.8894 63.1921 54.5413 62.4287 57.5632 60.9844C57.874 60.8364 58.0482 60.4994 57.9912 60.1601C57.9688 60.0252 57.9457 59.8555 57.9187 59.6581C57.8763 59.3458 57.8223 58.9557 57.7452 58.5131C58.5256 58.5763 59.3152 58.6195 60.1109 58.6195C63.9988 58.6195 67.6507 57.8561 70.6726 56.4118C70.981 56.2645 71.1553 55.9276 71.0975 55.5883ZM33.8914 57.0781C30.4516 57.0781 27.2215 56.4496 24.508 55.2567C24.8534 52.7291 25.7911 46.1547 33.8914 46.1547C37.6096 46.1547 40.256 47.5365 41.782 50.2392C38.5858 51.7544 37.2287 54.6214 36.6026 56.9377C35.7189 57.0249 34.8121 57.0781 33.8914 57.0781ZM47 61.6522C43.5602 61.6522 40.3301 61.0238 37.6166 59.8309C37.962 57.3032 38.8997 50.7289 47 50.7289C55.0988 50.7289 56.038 57.3017 56.3835 59.8309C53.67 61.0238 50.4399 61.6522 47 61.6522ZM60.1086 57.0781C59.1933 57.0781 58.2857 57.0264 57.3974 56.9369C56.7705 54.6206 55.4134 51.7537 52.2172 50.2385C53.7432 47.535 56.3912 46.154 60.1086 46.154C68.2074 46.154 69.1466 52.7268 69.4921 55.256C66.7786 56.4496 63.5485 57.0781 60.1086 57.0781Z" fill="white"/>
</g>
<defs>
<linearGradient id="paint0_linear_986_636" x1="3.07965" y1="34.7726" x2="91.4246" y2="59.1631" gradientUnits="userSpaceOnUse">
<stop stop-color="#1CA906"/>
<stop offset="1" stop-color="#22D306"/>
</linearGradient>
<clipPath id="clip0_986_636">
<rect width="94" height="94" fill="white"/>
</clipPath>
</defs>
</svg>
