<svg width="94" height="94" viewBox="0 0 94 94" fill="none" xmlns="http://www.w3.org/2000/svg">
<g clip-path="url(#clip0_986_1312)">
<path d="M59.4474 2.79535L91.6042 35.443L79.409 79.6154L35.0569 91.1403L2.90002 58.4926L15.0953 14.3202L59.4474 2.79535Z" fill="url(#paint0_linear_986_1312)"/>
<path d="M65.5714 54.0786C65.1033 53.808 64.5697 53.6653 64.0315 53.6653C63.1062 53.6653 62.2372 54.0879 61.6566 54.7873L57.7957 52.7076V42.0619L61.8462 39.8812C62.4176 40.4526 63.2034 40.7881 64.0308 40.7881C64.5697 40.7881 65.1026 40.6446 65.5714 40.374C67.0434 39.5235 67.55 37.6335 66.7003 36.1615C66.1512 35.2107 65.1265 34.6193 64.0269 34.6193C63.4879 34.6193 62.9551 34.7627 62.487 35.0326C61.2386 35.7536 60.695 37.2194 61.0721 38.5472L57.0377 40.7194L47.7715 35.3742V30.3845C49.0985 30.0398 50.0847 28.8423 50.0847 27.4096C50.0847 25.7085 48.7014 24.3252 47.0004 24.3252C45.2993 24.3252 43.916 25.7085 43.916 27.4096C43.916 28.8423 44.9022 30.0398 46.2293 30.3845V35.3742L36.9623 40.7202L32.9279 38.548C33.305 37.221 32.7614 35.7543 31.5137 35.0341C31.0457 34.7635 30.5129 34.6201 29.9739 34.6201C28.8743 34.6201 27.8495 35.2115 27.3005 36.1623C26.45 37.6351 26.9573 39.525 28.4294 40.3747C28.8974 40.6454 29.4302 40.7888 29.9692 40.7888C30.7966 40.7888 31.5816 40.4534 32.1537 39.882L36.2051 42.0634V52.7084L32.3434 54.7873C31.7636 54.0879 30.8953 53.6653 29.97 53.6653C29.4318 53.6653 28.899 53.8087 28.4309 54.0786C27.7169 54.4904 27.2064 55.1551 26.9936 55.9516C26.78 56.7474 26.8887 57.5779 27.3005 58.2919C27.8495 59.2426 28.8743 59.8341 29.9739 59.8341C30.5121 59.8341 31.0457 59.6906 31.5137 59.4208C32.6727 58.7507 33.2209 57.4383 32.9919 56.1914L36.9762 54.0462L46.2293 59.0283V63.7612C44.9022 64.1059 43.916 65.3034 43.916 66.7361C43.916 68.4372 45.2993 69.8205 47.0004 69.8205C48.7014 69.8205 50.0847 68.4372 50.0847 66.7361C50.0847 65.3034 49.0985 64.1059 47.7715 63.7612V59.0283L57.0246 54.0455L61.0081 56.1907C60.7791 57.4383 61.3273 58.7515 62.487 59.4208C62.9551 59.6914 63.4879 59.8341 64.0269 59.8341C65.1265 59.8341 66.1512 59.2426 66.7003 58.2919C67.55 56.8183 67.0434 54.9291 65.5714 54.0786ZM62.5394 37.305C62.6458 36.9071 62.9011 36.5748 63.2581 36.3681C63.4925 36.2332 63.7578 36.1615 64.0269 36.1615C64.5774 36.1615 65.0902 36.4568 65.364 36.9326C65.7896 37.669 65.5359 38.6136 64.8003 39.0384C64.0832 39.4517 63.1016 39.1819 62.6937 38.4748C62.4878 38.1185 62.433 37.7029 62.5394 37.305ZM45.4582 27.4096C45.4582 26.5591 46.1499 25.8674 47.0004 25.8674C47.8509 25.8674 48.5426 26.5591 48.5426 27.4096C48.5426 28.2601 47.8509 28.9518 47.0004 28.9518C46.1499 28.9518 45.4582 28.2601 45.4582 27.4096ZM47.0004 36.709L55.4408 41.5784L47.0004 46.124L38.5592 41.5792L47.0004 36.709ZM29.2005 39.0392C28.4648 38.6136 28.2111 37.669 28.6368 36.9326C28.9105 36.4568 29.4241 36.1615 29.9739 36.1615C30.243 36.1615 30.5082 36.2332 30.7426 36.3681C31.4783 36.7938 31.7319 37.7384 31.3063 38.4748C30.8984 39.1826 29.9145 39.451 29.2005 39.0392ZM30.7426 58.0845C30.0271 58.4985 29.0439 58.2287 28.6368 57.5208C28.4301 57.1646 28.3762 56.7489 28.4833 56.3503C28.5905 55.9524 28.8457 55.62 29.2028 55.4141C29.4372 55.2784 29.7024 55.2067 29.9708 55.2067C30.5205 55.2067 31.0333 55.5021 31.3071 55.9778C31.732 56.715 31.4783 57.6596 30.7426 58.0845ZM37.7472 52.7076V42.8931L46.2293 47.4603V57.2756L37.7472 52.7076ZM48.5426 66.7354C48.5426 67.5859 47.8509 68.2775 47.0004 68.2775C46.1499 68.2775 45.4582 67.5859 45.4582 66.7354C45.4582 65.8848 46.1499 65.1932 47.0004 65.1932C47.8509 65.1932 48.5426 65.8848 48.5426 66.7354ZM47.7715 57.2756V47.4603L56.2535 42.8931V52.7084L47.7715 57.2756ZM65.364 57.5208C64.9561 58.2294 63.9706 58.4985 63.2581 58.0845C62.9011 57.8786 62.6458 57.5462 62.5394 57.1484C62.4323 56.7497 62.4878 56.3341 62.6929 55.9778C62.9674 55.5028 63.4802 55.2067 64.0308 55.2067C64.2991 55.2067 64.5651 55.2784 64.7995 55.4141C65.5359 55.839 65.7896 56.7836 65.364 57.5208Z" fill="white"/>
</g>
<defs>
<linearGradient id="paint0_linear_986_1312" x1="3.07965" y1="34.7726" x2="91.4246" y2="59.1631" gradientUnits="userSpaceOnUse">
<stop stop-color="#1CA906"/>
<stop offset="1" stop-color="#22D306"/>
</linearGradient>
<clipPath id="clip0_986_1312">
<rect width="94" height="94" fill="white"/>
</clipPath>
</defs>
</svg>
