<svg width="94" height="94" viewBox="0 0 94 94" fill="none" xmlns="http://www.w3.org/2000/svg">
<g clip-path="url(#clip0_986_2161)">
<path d="M59.4474 2.79535L91.6042 35.443L79.409 79.6154L35.0569 91.1403L2.90002 58.4926L15.0953 14.3202L59.4474 2.79535Z" fill="url(#paint0_linear_986_2161)"/>
<path d="M67.0486 66.2774H63.9643V33.8915C63.9643 33.4658 63.6188 33.1204 63.1932 33.1204H56.2533C55.8277 33.1204 55.4822 33.4658 55.4822 33.8915V66.2774H51.6268V46.229C51.6268 45.8033 51.2813 45.4579 50.8557 45.4579H43.1447C42.7191 45.4579 42.3736 45.8033 42.3736 46.229V66.2774H38.5182V57.7954C38.5182 57.3689 38.1727 57.0243 37.7471 57.0243H30.8072C30.3816 57.0243 30.0361 57.3689 30.0361 57.7954V66.2774H26.9518C26.5261 66.2774 26.1807 66.6221 26.1807 67.0485C26.1807 67.4749 26.5261 67.8196 26.9518 67.8196H67.0486C67.4743 67.8196 67.8197 67.4749 67.8197 67.0485C67.8197 66.6221 67.4743 66.2774 67.0486 66.2774ZM57.0244 34.6625H62.4221V66.2774H57.0244V34.6625ZM43.9158 47H50.0846V66.2774H43.9158V47ZM31.5783 58.5665H36.976V66.2774H31.5783V58.5665Z" fill="white"/>
<path d="M27.7229 52.3907C27.9203 52.3907 28.1177 52.3152 28.2681 52.1648L50.0847 30.3552V34.6625C50.0847 35.0881 50.4301 35.4336 50.8558 35.4336C51.2814 35.4336 51.6269 35.0881 51.6269 34.6625V28.4938C51.6269 28.4922 51.6261 28.4914 51.6261 28.4899C51.6261 28.3912 51.606 28.2925 51.5675 28.1992C51.4888 28.0103 51.3392 27.8607 51.1503 27.782C51.0562 27.7427 50.956 27.7227 50.8558 27.7227H44.687C44.2614 27.7227 43.9159 28.0681 43.9159 28.4938C43.9159 28.9194 44.2614 29.2648 44.687 29.2648H48.9936L27.1778 51.0745C26.8763 51.376 26.8763 51.8633 27.1778 52.1648C27.3281 52.3159 27.5255 52.3907 27.7229 52.3907Z" fill="white"/>
</g>
<defs>
<linearGradient id="paint0_linear_986_2161" x1="3.07965" y1="34.7726" x2="91.4246" y2="59.1631" gradientUnits="userSpaceOnUse">
<stop stop-color="#1CA906"/>
<stop offset="1" stop-color="#22D306"/>
</linearGradient>
<clipPath id="clip0_986_2161">
<rect width="94" height="94" fill="white"/>
</clipPath>
</defs>
</svg>
