<svg width="94" height="94" viewBox="0 0 94 94" fill="none" xmlns="http://www.w3.org/2000/svg">
<g clip-path="url(#clip0_986_2218)">
<path d="M59.4474 2.79535L91.6042 35.443L79.409 79.6154L35.0569 91.1403L2.90002 58.4926L15.0953 14.3202L59.4474 2.79535Z" fill="url(#paint0_linear_986_2218)"/>
<path d="M46.3017 62.6215C46.3687 62.6393 46.4358 62.6477 46.5022 62.6477C46.8052 62.6477 47.0882 62.4696 47.2115 62.1797L54.8801 44.2186C54.9819 43.9803 54.9572 43.7066 54.8138 43.4907C54.6711 43.2748 54.4298 43.1445 54.1707 43.1445H49.4994L51.121 30.4862C51.1696 30.1061 50.9313 29.7475 50.5612 29.6449C50.188 29.5408 49.8024 29.7274 49.649 30.0791L42.0414 47.4618C41.9365 47.7001 41.9604 47.9754 42.1023 48.1928C42.245 48.411 42.4871 48.5421 42.7477 48.5421H47.3665L45.7365 61.7826C45.6894 62.1635 45.93 62.5213 46.3017 62.6215ZM43.9275 46.9999L48.9087 35.6186L47.8585 43.8176C47.8307 44.0374 47.8986 44.2587 48.0443 44.4253C48.1908 44.5918 48.4021 44.6867 48.6234 44.6867H53.0032L47.9341 56.5592L49.0051 47.8651C49.0321 47.6461 48.9635 47.4256 48.8177 47.2598C48.672 47.0948 48.4607 46.9999 48.2402 46.9999H43.9275Z" fill="white"/>
<path d="M69.0263 45.9627C69.0263 42.4496 68.1234 38.9797 66.4154 35.9285L65.069 36.6818C66.649 39.504 67.4841 42.7126 67.4841 45.9627C67.4841 54.6745 61.4264 62.2945 53.1232 64.3996L55.307 61.6977L54.108 60.7276L49.9502 65.8716L56.0087 68.5319L56.6294 67.1192L53.7147 65.8392C62.5807 63.4881 69.0263 55.3053 69.0263 45.9627Z" fill="white"/>
<path d="M48.4598 26.9445C53.6747 26.9445 58.5465 29.0295 62.1182 32.7231L58.6675 32.1486L58.4146 33.67L64.9427 34.758L64.2757 28.1767L62.7413 28.3325L63.0605 31.4816C59.2158 27.593 54.0171 25.4031 48.4598 25.4031C41.2748 25.4031 34.5123 29.2331 30.811 35.3988L32.1334 36.1922C35.6095 30.4013 41.7128 26.9445 48.4598 26.9445Z" fill="white"/>
<path d="M29.4339 45.9628C29.4339 44.1369 29.6907 42.3471 30.1958 40.6176L31.6647 43.9078L33.0727 43.2794L30.377 37.241L25.2554 41.4288L26.2316 42.6224L28.5757 40.7063C28.1246 42.4142 27.891 44.1739 27.891 45.9644C27.891 57.3018 37.1179 66.5256 48.4592 66.5256V64.9834C37.9684 64.9818 29.4339 56.4505 29.4339 45.9628Z" fill="white"/>
</g>
<defs>
<linearGradient id="paint0_linear_986_2218" x1="3.07965" y1="34.7726" x2="91.4246" y2="59.1631" gradientUnits="userSpaceOnUse">
<stop stop-color="#1CA906"/>
<stop offset="1" stop-color="#22D306"/>
</linearGradient>
<clipPath id="clip0_986_2218">
<rect width="94" height="94" fill="white"/>
</clipPath>
</defs>
</svg>
