<svg width="20" height="22" viewBox="0 0 20 22" fill="none" xmlns="http://www.w3.org/2000/svg">
<path d="M6.05566 19.9882C4.112 19.9882 2.51953 18.5417 2.51953 16.7608V15.0551C2.51953 14.7123 2.7972 14.428 3.13203 14.428C3.46686 14.428 3.74453 14.7123 3.74453 15.0551C3.74453 16.1003 4.73266 16.8862 6.05566 16.8862C7.37866 16.8862 8.36684 16.1003 8.36684 15.0551C8.36684 14.7123 8.64451 14.428 8.97934 14.428C9.31418 14.428 9.59184 14.7123 9.59184 15.0551V16.7608C9.59184 18.5417 8.0075 19.9882 6.05566 19.9882ZM3.95682 17.5802C4.31616 18.2658 5.12466 18.734 6.05566 18.734C6.98666 18.734 7.79517 18.2574 8.1545 17.5802C7.57467 17.9397 6.856 18.1487 6.05566 18.1487C5.25533 18.1487 4.53666 17.9397 3.95682 17.5802Z" fill="#292D32"/>
<path d="M6.05566 15.8494C4.71633 15.8494 3.51586 15.2223 2.91969 14.2274C2.65836 13.7926 2.51953 13.2826 2.51953 12.7642C2.51953 11.8862 2.89519 11.0668 3.58119 10.4565C4.90419 9.26921 7.18267 9.26925 8.51384 10.4482C9.19984 11.0669 9.58367 11.8862 9.58367 12.7642C9.58367 13.2826 9.44484 13.7926 9.18351 14.2274C8.59551 15.2223 7.395 15.8494 6.05566 15.8494ZM6.05566 10.791C5.41866 10.791 4.83068 11.0083 4.38968 11.4013C3.97318 11.7692 3.74453 12.2541 3.74453 12.7642C3.74453 13.0568 3.818 13.3244 3.965 13.5752C4.34066 14.2107 5.141 14.6036 6.05566 14.6036C6.97033 14.6036 7.77065 14.2107 8.13815 13.5836C8.28515 13.3411 8.35867 13.0652 8.35867 12.7725C8.35867 12.2625 8.13002 11.7775 7.71352 11.4013C7.28069 11.0083 6.69266 10.791 6.05566 10.791Z" fill="#292D32"/>
<path d="M6.05566 18.1487C4.0385 18.1487 2.51953 16.8193 2.51953 15.0635V12.7642C2.51953 10.9833 4.10383 9.5368 6.05566 9.5368C6.9785 9.5368 7.86051 9.86291 8.52201 10.4482C9.20801 11.0669 9.59184 11.8863 9.59184 12.7642V15.0635C9.59184 16.8193 8.07283 18.1487 6.05566 18.1487ZM6.05566 10.791C4.78166 10.791 3.74453 11.6772 3.74453 12.7642V15.0635C3.74453 16.1086 4.73266 16.8946 6.05566 16.8946C7.37866 16.8946 8.36684 16.1086 8.36684 15.0635V12.7642C8.36684 12.2542 8.13819 11.7692 7.72169 11.3929C7.28069 11.0083 6.69266 10.791 6.05566 10.791Z" fill="#292D32"/>
<path d="M15.7492 13.3411C14.516 13.3411 13.4707 12.4046 13.3727 11.2006C13.3074 10.5067 13.5524 9.82943 14.0424 9.33612C14.4507 8.90134 15.0305 8.65887 15.643 8.65887H17.3499C18.1584 8.68396 18.779 9.33609 18.779 10.1388V11.8612C18.779 12.6639 18.1584 13.316 17.3744 13.3411H15.7492ZM17.3253 9.91304H15.6512C15.3653 9.91304 15.104 10.0217 14.9162 10.2224C14.6794 10.4565 14.565 10.7742 14.5977 11.0919C14.6385 11.6438 15.1612 12.0869 15.7492 12.0869H17.3499C17.456 12.0869 17.554 11.9866 17.554 11.8612V10.1388C17.554 10.0133 17.456 9.9214 17.3253 9.91304Z" fill="#292D32"/>
<path d="M13.2669 18.734H11.2252C10.8904 18.734 10.6127 18.4498 10.6127 18.107C10.6127 17.7642 10.8904 17.4799 11.2252 17.4799H13.2669C15.3739 17.4799 16.7377 16.0836 16.7377 13.9264V13.3411H15.7495C14.5164 13.3411 13.4711 12.4047 13.3731 11.2007C13.3077 10.5067 13.5527 9.82947 14.0427 9.33617C14.4511 8.90139 15.0309 8.65892 15.6434 8.65892H16.7296V8.07363C16.7296 6.11713 15.6108 4.77097 13.7978 4.55358C13.6018 4.52014 13.4302 4.52016 13.2587 4.52016H5.90872C5.71272 4.52016 5.52488 4.53687 5.33705 4.56195C3.54038 4.79606 2.43789 6.13385 2.43789 8.07363V9.74585C2.43789 10.0887 2.16022 10.3729 1.82539 10.3729C1.49056 10.3729 1.21289 10.0887 1.21289 9.74585V8.07363C1.21289 5.49841 2.76459 3.63389 5.17375 3.32453C5.39425 3.29108 5.64739 3.26599 5.90872 3.26599H13.2587C13.4547 3.26599 13.7079 3.27435 13.9692 3.31616C16.3784 3.60043 17.9546 5.47332 17.9546 8.07363V9.286C17.9546 9.62881 17.6769 9.91309 17.3421 9.91309H15.6434C15.3575 9.91309 15.0962 10.0218 14.9084 10.2224C14.6716 10.4566 14.5572 10.7743 14.5899 11.092C14.6307 11.6438 15.1534 12.087 15.7414 12.087H17.3502C17.6851 12.087 17.9627 12.3712 17.9627 12.714V13.9264C17.9627 16.8026 16.0762 18.734 13.2669 18.734Z" fill="#292D32"/>
</svg>
