<svg width="26" height="21" viewBox="0 0 26 21" fill="none" xmlns="http://www.w3.org/2000/svg">
<path d="M11.0825 18.5754C11.0067 18.5754 10.9309 18.5754 10.855 18.5588C10.2159 18.4921 9.67416 18.1254 9.38166 17.5588L2.10169 3.55876C1.80919 3.00042 1.87422 2.45876 2.26422 2.06709C2.66505 1.67542 3.32583 1.49209 4.10583 1.57542L18.1567 3.01709C18.5359 3.05876 18.98 3.22542 19.2509 3.43376L22.6417 6.04209C23.3025 6.55876 23.3783 7.40042 22.7933 7.97542L12.6317 17.9254C12.1983 18.3504 11.6458 18.5754 11.0825 18.5754ZM3.74838 2.80876C3.61838 2.80876 3.55338 2.83376 3.54254 2.84209C3.54254 2.85042 3.52087 2.94209 3.60754 3.10042L10.8875 17.1004C10.9742 17.2671 11.0717 17.3254 11.0825 17.3254C11.0933 17.3254 11.2017 17.2921 11.3425 17.1504L21.5042 7.20042C21.58 7.13376 21.5692 6.98376 21.4825 6.92542L18.0917 4.31709C18.07 4.30042 17.9725 4.26709 17.9292 4.25876L3.89999 2.81709C3.84583 2.80876 3.79171 2.80876 3.74838 2.80876Z" fill="white"/>
<path d="M10.833 18.4671C10.8114 18.4671 10.7789 18.4671 10.7572 18.4671C10.313 18.4338 9.97721 18.1338 10.0205 17.7921L11.0713 8.9421L2.71889 3.23376C2.38306 3.00043 2.35056 2.60876 2.65389 2.35043C2.95723 2.0921 3.46639 2.0671 3.80222 2.30043L12.458 8.2171C12.653 8.35043 12.7505 8.5421 12.7289 8.7421L11.6455 17.9088C11.6022 18.2254 11.2447 18.4671 10.833 18.4671Z" fill="white"/>
<path d="M11.9158 9.30044C11.6233 9.30044 11.3417 9.17544 11.2009 8.9671C11.0275 8.72544 11.0925 8.42544 11.3416 8.23377L17.8416 3.23377C18.1558 2.9921 18.6759 2.9921 18.99 3.23377C19.3042 3.47544 19.3042 3.87544 18.99 4.1171L14.3859 7.65877L21.5467 6.55877C21.9908 6.4921 22.4134 6.70877 22.5 7.05044C22.5867 7.3921 22.305 7.7171 21.8608 7.78377L12.0675 9.2921C12.0242 9.30044 11.97 9.30044 11.9158 9.30044Z" fill="white"/>
</svg>
