<svg width="25" height="25" viewBox="0 0 25 25" fill="none" xmlns="http://www.w3.org/2000/svg">
<path d="M9.15659 13.798C9.09964 13.7969 9.09964 13.7969 9.04288 13.7917C8.41484 13.7219 7.95663 13.0996 8.01943 12.4016L8.62464 5.01859C8.68306 4.36939 9.17468 3.875 9.76181 3.875H14.1875C14.3139 3.875 14.4394 3.8983 14.5589 3.94398C15.1558 4.17197 15.4734 4.8945 15.2682 5.55779L13.7916 9.62898L16.5153 9.629C16.7168 9.629 16.9147 9.68821 17.0891 9.80063C17.6349 10.1528 17.8205 10.9299 17.5037 11.5365C17.0926 12.3447 12.9619 19.2868 11.627 21.5271C11.5208 21.7054 11.2488 21.618 11.2609 21.4107L11.7078 13.7917L9.15659 13.798Z" stroke="#21272A" stroke-width="1.5" stroke-linecap="round" stroke-linejoin="round"/>
</svg>
