<svg width="17" height="17" viewBox="0 0 17 17" fill="none" xmlns="http://www.w3.org/2000/svg">
<path d="M6.15324 9.21287C6.11512 9.21209 6.11512 9.21209 6.07712 9.20833C5.65672 9.15847 5.35 8.71399 5.39204 8.21546L5.79716 2.94185C5.83627 2.47813 6.16535 2.125 6.55836 2.125H9.52084C9.60548 2.125 9.68951 2.14165 9.7695 2.17427C10.1691 2.33712 10.3816 2.85322 10.2443 3.32699L9.25585 6.23498L11.0791 6.235C11.214 6.235 11.3464 6.27729 11.4631 6.3576C11.8285 6.60911 11.9528 7.16422 11.7407 7.59751C11.4655 8.1748 8.70044 13.1334 7.80688 14.7336C7.73579 14.861 7.55371 14.7986 7.56181 14.6505L7.86098 9.20833L6.15324 9.21287Z" stroke="#21272A" stroke-width="1.5" stroke-linecap="round" stroke-linejoin="round"/>
</svg>
