<svg width="14" height="14" viewBox="0 0 14 14" fill="none" xmlns="http://www.w3.org/2000/svg">
<path d="M4.41636 13.2708C3.11529 13.2708 2.04932 12.2617 2.04932 11.0192V9.82915C2.04932 9.58998 2.23518 9.39165 2.45932 9.39165C2.68345 9.39165 2.86932 9.58998 2.86932 9.82915C2.86932 10.5583 3.53076 11.1066 4.41636 11.1066C5.30196 11.1066 5.96344 10.5583 5.96344 9.82915C5.96344 9.58998 6.1493 9.39165 6.37344 9.39165C6.59757 9.39165 6.78344 9.58998 6.78344 9.82915V11.0192C6.78344 12.2617 5.72289 13.2708 4.41636 13.2708ZM3.01142 11.5908C3.25196 12.0692 3.79316 12.3958 4.41636 12.3958C5.03956 12.3958 5.58076 12.0633 5.8213 11.5908C5.43316 11.8417 4.95209 11.9875 4.41636 11.9875C3.88063 11.9875 3.39956 11.8417 3.01142 11.5908Z" fill="#292D32"/>
<path d="M4.41636 10.3833C3.51983 10.3833 2.71624 9.9458 2.31718 9.25163C2.14224 8.9483 2.04932 8.59246 2.04932 8.2308C2.04932 7.6183 2.30078 7.04662 2.75998 6.62079C3.64558 5.79246 5.17076 5.79249 6.06183 6.61499C6.52103 7.04665 6.77796 7.6183 6.77796 8.2308C6.77796 8.59246 6.68504 8.9483 6.5101 9.25163C6.1165 9.9458 5.31289 10.3833 4.41636 10.3833ZM4.41636 6.85414C3.98996 6.85414 3.59637 7.00579 3.30117 7.27996C3.02237 7.53663 2.86932 7.87496 2.86932 8.2308C2.86932 8.43496 2.91849 8.62165 3.01689 8.79665C3.26836 9.23998 3.80409 9.51414 4.41636 9.51414C5.02863 9.51414 5.56435 9.23999 5.81035 8.80249C5.90875 8.63332 5.95796 8.4408 5.95796 8.23664C5.95796 7.8808 5.80491 7.54246 5.52611 7.27996C5.23638 7.00579 4.84276 6.85414 4.41636 6.85414Z" fill="#292D32"/>
<path d="M4.41636 11.9875C3.06609 11.9875 2.04932 11.06 2.04932 9.835V8.23083C2.04932 6.98833 3.10983 5.97917 4.41636 5.97917C5.03409 5.97917 5.6245 6.20669 6.0673 6.61502C6.5265 7.04669 6.78344 7.61833 6.78344 8.23083V9.835C6.78344 11.06 5.76663 11.9875 4.41636 11.9875ZM4.41636 6.85417C3.56356 6.85417 2.86932 7.4725 2.86932 8.23083V9.835C2.86932 10.5642 3.53076 11.1125 4.41636 11.1125C5.30196 11.1125 5.96344 10.5642 5.96344 9.835V8.23083C5.96344 7.875 5.81038 7.53665 5.53158 7.27415C5.23638 7.00582 4.84276 6.85417 4.41636 6.85417Z" fill="#292D32"/>
<path d="M10.9054 8.63329C10.0799 8.63329 9.38017 7.97996 9.31457 7.13996C9.27084 6.65579 9.43484 6.1833 9.76284 5.83914C10.0362 5.5358 10.4243 5.36664 10.8343 5.36664H11.9768C12.518 5.38414 12.9335 5.83911 12.9335 6.39911V7.60081C12.9335 8.16081 12.5181 8.61579 11.9933 8.63329H10.9054ZM11.9604 6.24164H10.8398C10.6484 6.24164 10.4735 6.31747 10.3478 6.45747C10.1892 6.6208 10.1127 6.84246 10.1346 7.06412C10.1619 7.44912 10.5118 7.75829 10.9054 7.75829H11.9768C12.0479 7.75829 12.1135 7.68831 12.1135 7.60081V6.39911C12.1135 6.31161 12.0479 6.24747 11.9604 6.24164Z" fill="#292D32"/>
<path d="M9.2441 12.3958H7.87743C7.6533 12.3958 7.46743 12.1975 7.46743 11.9583C7.46743 11.7192 7.6533 11.5208 7.87743 11.5208H9.2441C10.6545 11.5208 11.5674 10.5467 11.5674 9.04167V8.63333H10.906C10.0805 8.63333 9.38077 7.98 9.31517 7.14C9.27143 6.65583 9.43544 6.18334 9.76344 5.83918C10.0368 5.53584 10.4249 5.36668 10.8349 5.36668H11.562V4.95834C11.562 3.59334 10.813 2.65416 9.59944 2.50249C9.46824 2.47916 9.35343 2.47917 9.23863 2.47917H4.31863C4.18743 2.47917 4.06169 2.49083 3.93595 2.50833C2.73329 2.67166 1.99529 3.60501 1.99529 4.95834V6.125C1.99529 6.36417 1.80943 6.5625 1.58529 6.5625C1.36116 6.5625 1.17529 6.36417 1.17529 6.125V4.95834C1.17529 3.16167 2.21398 1.86084 3.82665 1.64501C3.97425 1.62168 4.14369 1.60417 4.31863 1.60417H9.23863C9.36983 1.60417 9.53929 1.61 9.71422 1.63917C11.3269 1.8375 12.382 3.14417 12.382 4.95834V5.80418C12.382 6.04335 12.1961 6.24168 11.972 6.24168H10.8349C10.6435 6.24168 10.4686 6.31751 10.3429 6.45751C10.1844 6.62084 10.1078 6.8425 10.1297 7.06416C10.157 7.44916 10.5069 7.75833 10.9005 7.75833H11.9774C12.2016 7.75833 12.3874 7.95666 12.3874 8.19583V9.04167C12.3874 11.0483 11.1246 12.3958 9.2441 12.3958Z" fill="#292D32"/>
</svg>
