<svg width="13" height="13" viewBox="0 0 13 13" fill="none" xmlns="http://www.w3.org/2000/svg">
<path d="M6.58873 6.90624C4.97958 6.90624 3.66992 5.50874 3.66992 3.79166C3.66992 2.07458 4.97958 0.677078 6.58873 0.677078C8.19788 0.677078 9.50754 2.07458 9.50754 3.79166C9.50754 5.50874 8.19788 6.90624 6.58873 6.90624ZM6.58873 1.48958C5.4009 1.48958 4.43135 2.52416 4.43135 3.79166C4.43135 5.05916 5.4009 6.09374 6.58873 6.09374C7.77656 6.09374 8.74611 5.05916 8.74611 3.79166C8.74611 2.52416 7.77656 1.48958 6.58873 1.48958Z" fill="#292D32"/>
<path d="M10.9493 12.3229C10.7411 12.3229 10.5685 12.1388 10.5685 11.9167C10.5685 10.0479 8.78173 8.53125 6.58882 8.53125C4.3959 8.53125 2.60908 10.0479 2.60908 11.9167C2.60908 12.1388 2.43649 12.3229 2.22837 12.3229C2.02025 12.3229 1.84766 12.1388 1.84766 11.9167C1.84766 9.60375 3.97458 7.71875 6.58882 7.71875C9.20305 7.71875 11.33 9.60375 11.33 11.9167C11.33 12.1388 11.1574 12.3229 10.9493 12.3229Z" fill="#292D32"/>
</svg>
