<svg width="22" height="23" viewBox="0 0 22 23" fill="none" xmlns="http://www.w3.org/2000/svg">
<path d="M4.96852 1.83568C5.29197 1.57692 5.34441 1.10495 5.08565 0.781506C4.82689 0.45806 4.35493 0.405619 4.03148 0.664376L1.53148 2.66438C1.20803 2.92313 1.15559 3.3951 1.41435 3.71855C1.67311 4.042 2.14507 4.09444 2.46852 3.83568L4.96852 1.83568Z" fill="#1AC200"/>
<path d="M17.9685 0.664376C17.6451 0.405619 17.1731 0.45806 16.9143 0.781506C16.6556 1.10495 16.708 1.57692 17.0315 1.83568L19.5315 3.83568C19.8549 4.09444 20.3269 4.042 20.5857 3.71855C20.8444 3.3951 20.792 2.92313 20.4685 2.66438L17.9685 0.664376Z" fill="#1AC200"/>
<path fill-rule="evenodd" clip-rule="evenodd" d="M11 1.25003C5.06294 1.25003 0.25 6.06297 0.25 12C0.25 17.9371 5.06294 22.75 11 22.75C16.9371 22.75 21.75 17.9371 21.75 12C21.75 6.06297 16.9371 1.25003 11 1.25003ZM11.75 8.00003C11.75 7.58582 11.4142 7.25003 11 7.25003C10.5858 7.25003 10.25 7.58582 10.25 8.00003L10.25 11.5C10.25 12.7427 11.2574 13.75 12.5 13.75H14C14.4142 13.75 14.75 13.4142 14.75 13C14.75 12.5858 14.4142 12.25 14 12.25H12.5C12.0858 12.25 11.75 11.9142 11.75 11.5L11.75 8.00003Z" fill="#1AC200"/>
</svg>
