<svg width="32" height="32" viewBox="0 0 32 32" fill="none" xmlns="http://www.w3.org/2000/svg">
<path d="M11.5339 13.8242C10.3804 12.6771 9.66634 11.0886 9.66634 9.33334C9.66634 7.57808 10.3804 5.9896 11.5339 4.84252C10.8698 4.51645 10.1228 4.33334 9.33301 4.33334C6.57158 4.33334 4.33301 6.57192 4.33301 9.33334C4.33301 12.0948 6.57158 14.3333 9.33301 14.3333C10.1228 14.3333 10.8698 14.1502 11.5339 13.8242Z" fill="#1C1C1C"/>
<path d="M10.9997 9.33334C10.9997 6.57192 13.2383 4.33334 15.9997 4.33334C18.7611 4.33334 20.9997 6.57192 20.9997 9.33334C20.9997 12.0948 18.7611 14.3333 15.9997 14.3333C13.2383 14.3333 10.9997 12.0948 10.9997 9.33334Z" fill="#1C1C1C"/>
<path d="M20.4655 4.84252C21.619 5.9896 22.333 7.57808 22.333 9.33334C22.333 11.0886 21.619 12.6771 20.4655 13.8242C21.1296 14.1502 21.8766 14.3333 22.6663 14.3333C25.4278 14.3333 27.6663 12.0948 27.6663 9.33334C27.6663 6.57192 25.4278 4.33334 22.6663 4.33334C21.8766 4.33334 21.1296 4.51645 20.4655 4.84252Z" fill="#1C1C1C"/>
<path d="M6.99967 21.3333C6.99967 18.5719 9.23825 16.3333 11.9997 16.3333H19.9997C22.7611 16.3333 24.9997 18.5719 24.9997 21.3333C24.9997 24.0948 22.7611 26.3333 19.9997 26.3333H11.9997C9.23825 26.3333 6.99967 24.0948 6.99967 21.3333Z" fill="#1C1C1C"/>
<path d="M0.333008 20C0.333008 17.2386 2.57158 15 5.33301 15H11.9997C8.50187 15 5.66634 17.8355 5.66634 21.3333C5.66634 22.6998 6.09911 23.9653 6.83508 25H5.33301C2.57158 25 0.333008 22.7614 0.333008 20Z" fill="#1C1C1C"/>
<path d="M26.333 21.3333C26.333 22.6998 25.9002 23.9653 25.1643 25H26.6663C29.4278 25 31.6663 22.7614 31.6663 20C31.6663 17.2386 29.4278 15 26.6663 15H19.9997C23.4975 15 26.333 17.8355 26.333 21.3333Z" fill="#1C1C1C"/>
</svg>
